<?xml version="1.0" encoding="utf-8"?>
<!-- Generator: Adobe Illustrator 21.1.0, SVG Export Plug-In . SVG Version: 6.00 Build 0)  -->
<svg version="1.1" id="Ebene_1" xmlns="http://www.w3.org/2000/svg" xmlns:xlink="http://www.w3.org/1999/xlink" x="0px" y="0px"
	 viewBox="0 0 512 512" style="enable-background:new 0 0 512 512;" xml:space="preserve">
<style type="text/css">
	.st0{fill:#7EC699;}
</style>
<path class="st0" d="M75,512h362c41.4,0,75-33.6,75-75V75c0-41.4-33.6-75-75-75H75C33.6,0,0,33.6,0,75v362C0,478.4,33.6,512,75,512z
	 M30,75c0-24.8,20.2-45,45-45h362c24.8,0,45,20.2,45,45v362c0,24.8-20.2,45-45,45H75c-24.8,0-45-20.2-45-45V75z"/>
<path class="st0" d="M256,391c74.4,0,135-60.6,135-135s-60.6-135-135-135s-135,60.6-135,135S181.6,391,256,391z M256,151
	c57.9,0,105,47.1,105,105s-47.1,105-105,105s-105-47.1-105-105S198.1,151,256,151z"/>
<path class="st0" d="M406,151c24.8,0,45-20.2,45-45s-20.2-45-45-45s-45,20.2-45,45S381.2,151,406,151z M406,91c8.3,0,15,6.7,15,15
	s-6.7,15-15,15s-15-6.7-15-15S397.7,91,406,91z"/>
</svg>
