<?xml version="1.0" encoding="utf-8"?>
<!-- Generator: Adobe Illustrator 21.1.0, SVG Export Plug-In . SVG Version: 6.00 Build 0)  -->
<svg version="1.1" id="Ebene_1" xmlns="http://www.w3.org/2000/svg" xmlns:xlink="http://www.w3.org/1999/xlink" x="0px" y="0px"
	 viewBox="0 0 512 512" style="enable-background:new 0 0 512 512;" xml:space="preserve">
<style type="text/css">
	.st0{fill:#7EC699;}
</style>
<path class="st0" d="M91,422h90V210H91V422z M121,240h30v152h-30V240z"/>
<path class="st0" d="M331.1,210C331.1,210,331,210,331.1,210c-10.5,0-20.6,1.7-30.1,5.1V210h-90v212h90V315c0-8.3,6.7-15,15-15
	s15,6.7,15,15v107h90V304.7C421,256.1,381.6,210,331.1,210z M391,392h-30v-77c0-24.8-20.2-45-45-45s-45,20.2-45,45v77h-30V240h30v30
	l24-18c10.4-7.8,22.9-12,36-12h0.1c31.9,0,59.9,30.3,59.9,64.7V392z"/>
<path class="st0" d="M91,180h90V90H91V180z M121,120h30v30h-30V120z"/>
</svg>
