<?xml version="1.0" encoding="utf-8"?>
<!-- Generator: Adobe Illustrator 21.1.0, SVG Export Plug-In . SVG Version: 6.00 Build 0)  -->
<svg version="1.1" id="Ebene_1" xmlns="http://www.w3.org/2000/svg" xmlns:xlink="http://www.w3.org/1999/xlink" x="0px" y="0px"
	 viewBox="0 0 512 512" style="enable-background:new 0 0 512 512;" xml:space="preserve">
<style type="text/css">
	.st0{fill:#7EC699;}
</style>
<path class="st0" d="M256,0C115.3,0,0,116.3,0,257c0,139.9,114.2,255,256,255c141.6,0,256-114.9,256-255C512,116.3,396.7,0,256,0z
	 M301,477.5c-14.4,3-29.7,4.5-45,4.5s-30.6-1.5-45-4.5v-70.2c0-16.8,4.5-22.8,10.5-30.9c3.1-3.5,4.9-6.6,18.6-27.3l-23.1-3.6
	c-59.4-8.7-82.8-39.6-92.1-63.6c-12-32.1-5.7-72.3,15.9-97.8c3.3-3.9,6-10.5,3.6-17.4c-4.5-13.8-3.9-35.7-0.9-44.1
	c15.9,2.3,32.3,13.7,45.9,21.9c6.3,3.7,9.6,2.7,12.6,3c11-2.3,28.1-7.8,54.3-7.8c16.2,0,33.3,2.4,50.1,7.2c3-0.1,7.8,2.5,16.2-2.4
	c14.3-8.7,30.1-19.7,45.9-21.9c3,8.4,3.6,30.3-0.9,44.1c-2.4,6.9,0.3,13.5,3.6,17.4c21.6,25.5,27.9,65.7,15.9,97.8
	c-9.3,24-32.7,54.9-92.1,63.6l-23.1,3.6c14.2,21.4,15.7,23.9,18.6,27.3c6,8.1,10.5,14.1,10.5,30.9L301,477.5L301,477.5z M331,468.8
	v-61.5c0-17.1-3.6-28.5-8.4-36.9c45.6-12.3,78-39.3,92.4-78c15.3-40.8,8.4-89.4-17.1-123c4.5-20.1,4.5-52.2-6.3-67.2
	c-4.8-6.6-11.4-10.2-19.8-10.2c-0.3,0-0.3,0-0.3,0c-23.3,1.3-41.6,13-61.2,24.9c-18-4.8-36.3-7.2-54.6-7.2
	c-18.6,0-37.2,2.7-53.7,7.2c-20.7-12.5-38.8-23.7-62.7-24.9c-7.5,0-14.1,3.6-18.9,10.2c-10.8,15-10.8,47.1-6.3,67.2
	C88.6,203,81.7,251.9,97,292.4c14.4,38.7,46.8,65.7,92.4,78c-3.7,6.5-6.7,14.9-7.8,26.3c-9.2,3.2-17.2,4.2-24.6,2
	c-7.8-2.3-13.9-7.5-19.2-16.5c-11.9-20-32.2-36.4-55.3-34.2l2.6,29.9c10.7-1,21.3,10.3,26.9,19.7c9.1,15.4,21.4,25.4,36.5,29.9
	c11.2,3.3,21.5,3.2,32.6,0.9v40.4C93.7,438.2,30,354.8,30,257C30,132.8,131.8,30,256,30s226,102.8,226,227
	C482,354.8,418.3,438.2,331,468.8z"/>
</svg>
